HIERARCHY
ROOT Hips
{
	OFFSET 0.0000 0.0000 0.0000
	CHANNELS 6 Xposition Yposition Zposition Zrotation Xrotation Yrotation
	JOINT Ab
	{
		OFFSET -0.0000 8.1305 -0.0000
		CHANNELS 3 Zrotation Xrotation Yrotation
		JOINT Chest
		{
			OFFSET -0.0000 26.2902 -0.0000
			CHANNELS 3 Zrotation Xrotation Yrotation
			JOINT Neck
			{
				OFFSET -0.0000 26.2902 0.0000
				CHANNELS 3 Zrotation Xrotation Yrotation
				JOINT Head
				{
					OFFSET -0.0000 10.8167 0.0000
					CHANNELS 3 Zrotation Xrotation Yrotation
					End Site
					{
						OFFSET -0.0000 16.7167 0.0000
					}
				}
			}
			JOINT LeftCollar
			{
				OFFSET -0.0000 26.2902 0.0000
				CHANNELS 3 Zrotation Xrotation Yrotation
				JOINT LeftShoulder
				{
					OFFSET 19.6667 -0.0000 0.0000
					CHANNELS 3 Zrotation Xrotation Yrotation
					JOINT LeftElbow
					{
						OFFSET 27.2190 0.0000 0.0000
						CHANNELS 3 Zrotation Xrotation Yrotation
						JOINT LeftWrist
						{
							OFFSET 30.7431 0.0000 0.0000
							CHANNELS 3 Zrotation Xrotation Yrotation
							End Site
							{
								OFFSET 0.0000 -14.7500 0.0000
							}
						}
					}
				}
			}
			JOINT RightCollar
			{
				OFFSET -0.0000 26.2902 0.0000
				CHANNELS 3 Zrotation Xrotation Yrotation
				JOINT RightShoulder
				{
					OFFSET -19.6667 0.0000 0.0000
					CHANNELS 3 Zrotation Xrotation Yrotation
					JOINT RightElbow
					{
						OFFSET -27.2190 0.0000 0.0000
						CHANNELS 3 Zrotation Xrotation Yrotation
						JOINT RightWrist
						{
							OFFSET -30.7431 0.0000 0.0000
							CHANNELS 3 Zrotation Xrotation Yrotation
							End Site
							{
								OFFSET -0.0000 -14.7500 0.0000
							}
						}
					}
				}
			}
		}
	}
	JOINT LeftHip
	{
		OFFSET 11.8000 0.0000 0.0000
		CHANNELS 3 Zrotation Xrotation Yrotation
		JOINT LeftKnee
		{
			OFFSET -0.0000 -39.7832 0.0000
			CHANNELS 3 Zrotation Xrotation Yrotation
			JOINT LeftAnkle
			{
				OFFSET -0.0000 -41.7317 0.0000
				CHANNELS 3 Zrotation Xrotation Yrotation
				End Site
				{
					OFFSET -0.0000 -4.9167 16.7167
				}
			}
		}
	}
	JOINT RightHip
	{
		OFFSET -11.8000 0.0000 0.0000
		CHANNELS 3 Zrotation Xrotation Yrotation
		JOINT RightKnee
		{
			OFFSET -0.0000 -39.7832 0.0000
			CHANNELS 3 Zrotation Xrotation Yrotation
			JOINT RightAnkle
			{
				OFFSET -0.0000 -41.7317 0.0000
				CHANNELS 3 Zrotation Xrotation Yrotation
				End Site
				{
					OFFSET -0.0000 -4.9167 16.7167
				}
			}
		}
	}
}
MOTION
Frames: 19
Frame Time: 0.010000
-16.5925 96.9783 173.1738 358.9071 357.7626 181.0241 357.6592 347.9069 0.0060 3.6110 10.3776 359.9197 359.6196 0.5333 0.1682 354.5360 4.6897 0.3739 339.6506 357.3766 14.4950 316.2172 57.9675 341.6266 10.4193 356.9430 327.3805 88.9296 358.1232 346.6984 27.1145 355.7882 342.7544 45.8962 45.2702 3.8474 340.2171 354.5739 30.2572 270.6923 355.2019 11.1459 358.1388 3.7779 358.6249 357.8980 5.7547 4.9825 351.8415 351.4605 13.2099 359.1610 7.0472 12.7714 5.1004 4.5487 11.7646 350.4409 344.4459 313.4214 
-16.5990 96.9791 173.1622 358.8948 357.7510 181.0323 357.6503 347.8903 0.0026 3.6123 10.3999 359.9125 359.6238 0.5152 0.1453 354.5278 4.6993 0.3778 339.6507 357.3766 14.4864 316.2113 57.9770 341.6057 10.4743 356.9654 327.3836 88.9709 358.0820 346.8293 27.1248 355.8143 342.7332 45.8586 45.2753 3.9117 340.1912 354.6101 30.2319 270.6711 355.1524 11.1497 358.1202 3.7752 358.6255 357.9031 5.7453 5.0383 351.7693 351.4633 13.1411 359.1436 7.0553 12.7904 5.1021 4.5237 11.7044 350.3366 344.5119 313.4537 
-16.6026 96.9799 173.1483 358.8875 357.7482 181.0270 357.6710 347.8904 359.9891 3.5731 10.4001 359.9154 359.6033 0.5473 0.1506 354.5800 4.6539 0.3583 339.6673 357.3809 14.4947 316.2273 57.9977 341.5771 10.4592 356.9344 327.3916 89.0312 358.1047 346.8217 27.1279 355.7719 342.7458 45.9054 45.3042 3.8762 340.1005 354.6033 30.2014 270.7132 355.1381 11.1055 358.1123 3.8016 358.6144 357.8962 5.7094 5.0255 351.9417 351.5288 13.2495 359.1285 7.0512 12.8229 5.1219 4.5349 11.6642 350.4179 344.4534 313.4522 
-16.6061 96.9785 173.1465 358.8796 357.7216 181.0392 357.6664 347.8824 359.9799 3.5713 10.3990 359.9046 359.5860 0.5263 0.1533 354.5880 4.6641 0.3683 339.6712 357.3819 14.4990 316.1967 57.9662 341.5849 10.4329 356.9180 327.3982 88.9600 358.0871 346.7187 27.1480 355.8071 342.7693 45.8971 45.2345 3.8381 340.1926 354.6110 30.2592 270.6569 355.1716 11.1604 358.0943 3.7559 358.6385 357.9202 5.7489 4.9897 351.8603 351.4898 13.1903 359.1270 7.0209 12.7428 5.1047 4.5570 11.7379 350.4075 344.4550 313.4463 
-16.6098 96.9771 173.1359 358.8811 357.7150 181.0474 357.6692 347.8768 359.9770 3.5784 10.4108 359.8954 359.5950 0.5327 0.1482 354.5566 4.6560 0.3730 339.6571 357.3987 14.5078 316.2526 57.9822 341.5291 10.4300 356.9530 327.3881 88.9652 358.0824 346.8258 27.1602 355.8241 342.7691 45.8518 45.2344 3.8885 340.1926 354.5786 30.2444 270.6877 355.1558 11.2005 358.0981 3.7633 358.6272 357.9071 5.7331 5.0087 351.8325 351.5069 13.2332 359.1264 7.0226 12.7745 5.1106 4.5530 11.6803 350.4519 344.4237 313.4645 
-16.6117 96.9737 173.1238 358.8815 357.7260 181.0475 357.6771 347.9064 359.9733 3.5758 10.3971 359.8840 359.5819 0.5477 0.1484 354.5687 4.6321 0.3771 339.6597 357.3993 14.5002 316.2091 57.9751 341.5637 10.4306 356.9057 327.3911 89.0793 358.1115 346.7812 27.1612 355.7944 342.7661 45.8537 45.3035 3.8914 340.1058 354.5679 30.2242 270.7125 355.1492 11.0544 358.0976 3.7832 358.6430 357.9098 5.7283 5.0009 351.8501 351.5178 13.2456 359.1253 7.0494 12.8317 5.1156 4.5300 11.6055 350.3183 344.5220 313.4842 
-16.6158 96.9686 173.1115 358.8861 357.7219 181.0547 357.6730 347.9071 359.9742 3.5965 10.4002 359.8796 359.5723 0.5719 0.1556 354.5882 4.6012 0.3692 339.6734 357.3675 14.4852 316.1202 58.0235 341.6274 10.5353 356.8963 327.4057 88.9002 358.0863 346.7783 27.1646 355.7934 342.7711 45.8470 45.2777 3.8644 340.1762 354.5691 30.2437 270.5699 355.1521 11.1290 358.1021 3.7853 358.6524 357.9062 5.7352 4.9752 351.8938 351.5240 13.2453 359.1312 7.0464 12.7617 5.1095 4.5507 11.6646 350.4138 344.4381 313.4780 
-16.6202 96.9684 173.1035 358.8876 357.7104 181.0565 357.6736 347.9011 359.9690 3.6034 10.4138 359.8736 359.5812 0.5327 0.1479 354.5714 4.6464 0.3644 339.6511 357.3971 14.4980 316.2409 58.0009 341.5258 10.3837 356.9462 327.3948 89.0387 358.0931 346.7514 27.1756 355.8193 342.7657 45.8113 45.2574 3.8981 340.1989 354.6280 30.2399 270.6113 355.1277 11.1728 358.1000 3.7654 358.6865 357.9152 5.7577 4.9565 351.7989 351.4717 13.1564 359.1276 7.0358 12.7558 5.1214 4.5556 11.6405 350.3485 344.4623 313.4822 
-16.6258 96.9655 173.0982 358.8808 357.6989 181.0491 357.6722 347.9102 359.9705 3.6036 10.3958 359.8782 359.5508 0.5857 0.1482 354.6286 4.5902 0.3571 339.6530 357.3772 14.4969 316.2288 58.0400 341.5186 10.4835 356.9294 327.4205 88.9600 358.0623 346.7757 27.1787 355.7976 342.7634 45.8056 45.3072 3.9082 340.1552 354.5569 30.2132 270.6158 355.1892 11.1062 358.0852 3.7546 358.6950 357.9201 5.7654 4.9754 351.9410 351.5090 13.1897 359.1088 7.0348 12.8469 5.1305 4.5377 11.6002 350.4240 344.4236 313.4704 
-16.6328 96.9648 173.0877 358.8772 357.6978 181.0519 357.6595 347.9180 359.9661 3.6231 10.4038 359.8856 359.5593 0.5750 0.1481 354.6371 4.5943 0.3473 339.6177 357.3681 14.4756 316.3213 58.0603 341.5035 10.4209 356.9224 327.3857 89.0379 358.0859 346.8046 27.1744 355.8282 342.7700 45.8306 45.2243 3.8793 340.1936 354.6188 30.2423 270.6874 355.1837 11.1317 358.0767 3.7528 358.7071 357.9216 5.7809 4.9679 351.9116 351.5098 13.2010 359.1037 7.0321 12.7373 5.1220 4.5589 11.6232 350.4690 344.3987 313.5400 
-16.6368 96.9624 173.0793 358.8825 357.6793 181.0444 357.6586 347.9027 359.9809 3.6348 10.4144 359.8877 359.5692 0.5728 0.1350 354.6237 4.6023 0.3477 339.6114 357.4018 14.4595 316.2990 58.0220 341.5236 10.4128 356.9608 327.3857 88.8589 358.0366 346.6825 27.1686 355.8007 342.7755 45.8456 45.2771 3.8688 340.1191 354.5985 30.2200 270.6456 355.1959 11.0650 358.0796 3.7363 358.7362 357.9292 5.7888 4.9023 351.7934 351.4433 13.1667 359.0988 7.0170 12.8005 5.1373 4.5555 11.6009 350.4358 344.4015 313.5100 
-16.6448 96.9606 173.0687 358.8758 357.6779 181.0422 357.6539 347.9047 359.9782 3.6350 10.4275 359.8895 359.5998 0.5689 0.1200 354.6150 4.6044 0.3503 339.6242 357.3762 14.4801 316.3959 58.1094 341.3888 10.5093 356.9461 327.4244 88.9060 358.0139 346.7871 27.1732 355.8200 342.7640 45.8419 45.2534 3.8677 340.1116 354.5618 30.3166 271.3691 354.9064 9.8979 358.0683 3.7404 358.7222 357.9236 5.7934 4.9135 351.7987 351.4543 13.2188 359.0904 7.0263 12.7441 5.1281 4.5513 11.6272 350.3900 344.4318 313.5290 
-16.6504 96.9580 173.0620 358.8735 357.6638 181.0444 357.6496 347.9050 359.9755 3.6345 10.4228 359.8922 359.6485 0.5616 0.1315 354.5705 4.6380 0.3391 339.8888 357.4038 14.5485 315.8415 58.5895 341.2713 11.1002 356.7101 328.0464 88.6392 357.8230 346.9087 27.1655 355.8224 342.7604 45.8685 45.2772 3.8705 340.1327 354.6137 30.2185 270.6609 355.1988 11.0700 358.0619 3.7188 358.7506 357.9196 5.8166 4.9120 351.8744 351.4507 13.1851 359.0828 7.0200 12.7513 5.1395 4.5406 11.5541 350.4498 344.4011 313.5729 
-16.6575 96.9558 173.0564 358.8770 357.6602 181.0395 357.6473 347.9144 359.9817 3.6479 10.4257 359.8984 359.6629 0.5584 0.1314 354.5617 4.6510 0.3301 339.8757 357.4208 14.5689 315.9237 58.5921 341.1950 11.0464 356.7957 328.0446 88.6583 357.8363 346.9643 27.1540 355.8053 342.7559 45.8779 45.3075 3.8687 340.0572 354.5375 30.2828 271.4009 354.8988 9.8434 358.0608 3.7103 358.7468 357.9246 5.8321 4.9143 351.7923 351.4182 13.1311 359.0785 7.0210 12.7779 5.1450 4.5348 11.5589 350.4746 344.3766 313.5517 
-16.6664 96.9539 173.0436 358.8731 357.6608 181.0295 357.6442 347.9206 359.9892 3.6479 10.4240 359.9075 359.7071 0.5951 0.1218 354.5293 4.6267 0.3357 339.8627 357.4175 14.5590 315.9368 58.5781 341.2063 11.0839 356.8128 328.0325 88.6376 357.8608 346.9730 27.1603 355.8033 342.7525 45.8736 45.3199 3.8489 340.0734 354.5793 30.2868 271.4570 354.8741 9.8700 358.0541 3.7298 358.7728 357.9192 5.8186 4.8663 351.8381 351.4304 13.1695 359.0660 7.0300 12.7462 5.1454 4.5311 11.5628 350.4137 344.4120 313.5755 
-16.6727 96.9509 173.0347 358.8772 357.6491 181.0343 357.6367 347.9194 359.9924 3.6703 10.4223 359.9041 359.6979 0.6108 0.1099 354.5435 4.6233 0.3261 339.8702 357.3785 14.5446 315.8708 58.6071 341.2674 11.1663 356.7944 328.0353 88.7257 357.8553 347.0827 27.1427 355.7795 342.7430 45.9129 45.3191 3.8315 340.0640 354.5509 30.2740 271.4560 354.8973 9.9178 358.0539 3.7145 358.7667 357.9194 5.8344 4.8741 351.8386 351.4189 13.1672 359.0653 7.0207 12.7145 5.1390 4.5471 11.6327 350.4105 344.3974 313.5474 
-16.6816 96.9488 173.0280 358.8752 357.6460 181.0340 357.6362 347.9277 359.9970 3.6725 10.4236 359.9030 359.7273 0.6160 0.1059 354.5278 4.6336 0.3440 339.8462 357.4132 14.5825 316.0401 58.6068 341.1102 11.0250 356.8303 327.9898 89.2791 357.9362 347.3508 27.1571 355.8109 342.7460 45.9057 45.2900 3.8072 340.1390 354.5548 30.3040 271.4525 354.9114 9.9837 358.0468 3.7135 358.7861 357.9205 5.8368 4.8655 351.8313 351.4283 13.1609 359.0530 7.0285 12.7462 5.1469 4.5297 11.5572 350.4298 344.3894 313.5943 
-16.6956 96.9483 173.0162 358.8713 357.6438 181.0399 357.6287 347.9234 0.0016 3.6832 10.4400 359.9045 359.7544 0.6251 0.1144 354.5113 4.6314 0.3264 339.8529 357.3860 14.5761 315.9984 58.6292 341.1273 11.1532 356.8025 328.0013 89.2120 357.9346 347.3974 27.1374 355.7877 342.7340 45.9280 45.3090 3.8278 340.0628 354.5502 30.2640 271.4926 354.8646 9.9376 358.0308 3.7189 358.7657 357.9229 5.8389 4.8824 351.8403 351.4153 13.1609 359.0338 7.0454 12.7350 5.1634 4.5048 11.5355 350.5074 344.3407 313.6061 
-16.7062 96.9454 173.0088 358.8695 357.6366 181.0331 357.6296 347.9183 0.0018 3.6849 10.4542 359.9167 359.8107 0.6167 0.1258 354.4396 4.6658 0.3212 339.8439 357.4041 14.5528 315.9732 58.5671 341.1747 11.0711 356.8208 327.9824 89.1667 357.9182 347.2541 27.1544 355.8183 342.7170 45.8959 45.2791 3.8463 340.1281 354.5652 30.2872 271.5020 354.8953 9.9544 358.0267 3.7179 358.7972 357.9166 5.8342 4.8887 351.8379 351.4467 13.1843 359.0223 7.0314 12.6977 5.1685 4.5326 11.5623 350.4474 344.3541 313.6183 
